<svg width="156" height="45" viewBox="0 0 156 45" fill="none" xmlns="http://www.w3.org/2000/svg">
<path d="M155.134 39.8104C155.134 42.2085 153.148 44.151 150.692 44.151H5.31529C2.86009 44.151 0.867188 42.2085 0.867188 39.8104V5.1954C0.867188 2.79843 2.86009 0.849121 5.31529 0.849121H150.69C153.148 0.849121 155.133 2.79843 155.133 5.1954L155.134 39.8104Z" fill="black"/>
<path d="M150.222 0.901409C152.897 0.901409 155.074 3.02063 155.074 5.625V39.375C155.074 41.9794 152.897 44.0986 150.222 44.0986H5.77778C3.10267 44.0986 0.925889 41.9794 0.925889 39.375V5.625C0.925889 3.02063 3.10267 0.901409 5.77778 0.901409H150.222ZM150.222 4.74031e-06H5.77778C2.60144 4.74031e-06 0 2.53266 0 5.625V39.375C0 42.4673 2.60144 45 5.77778 45H150.222C153.399 45 156 42.4673 156 39.375V5.625C156 2.53266 153.399 4.74031e-06 150.222 4.74031e-06Z" fill="#A6A6A6"/>
<path d="M34.8141 22.2569C34.7806 18.631 37.8636 16.867 38.0046 16.7849C36.2585 14.3065 33.5522 13.9679 32.6012 13.9409C30.3282 13.708 28.1234 15.265 26.9655 15.265C25.7846 15.265 24.0015 13.9634 22.0798 14.0016C19.607 14.0388 17.2935 15.4326 16.0247 17.5971C13.4062 22.0105 15.3591 28.4961 17.8678 32.0635C19.1228 33.8106 20.5892 35.7614 22.5086 35.6928C24.3863 35.6174 25.0878 34.5273 27.3538 34.5273C29.599 34.5273 30.2577 35.6928 32.2152 35.6489C34.2305 35.6174 35.4993 33.8939 36.7103 32.131C38.1606 30.1285 38.743 28.1564 38.7661 28.0551C38.7187 28.0394 34.8522 26.6028 34.8141 22.2569Z" fill="white"/>
<path d="M31.1163 11.5941C32.1262 10.3645 32.8173 8.69164 32.6254 6.99402C31.1637 7.05702 29.3356 7.97839 28.2829 9.18102C27.3515 10.2408 26.5195 11.9778 26.7344 13.6113C28.3765 13.7305 30.0624 12.8046 31.1163 11.5941Z" fill="white"/>
<path d="M61.9905 35.442H59.3662L57.9287 31.0443H52.9321L51.5627 35.442H49.0078L53.9582 20.4705H57.0158L61.9905 35.442ZM57.4954 29.1993L56.1954 25.29C56.0579 24.8906 55.8002 23.9501 55.42 22.4696H55.3738C55.2224 23.1063 54.9786 24.0468 54.6435 25.29L53.3666 29.1993H57.4954Z" fill="white"/>
<path d="M74.7215 29.9114C74.7215 31.7474 74.2119 33.1987 73.1927 34.2641C72.2798 35.2124 71.1462 35.6861 69.793 35.6861C68.3324 35.6861 67.2831 35.1753 66.6441 34.1538H66.5979V39.8407H64.1343V28.2003C64.1343 27.0461 64.1031 25.8614 64.043 24.6464H66.2096L66.3471 26.3576H66.3934C67.215 25.0683 68.4618 24.4248 70.1351 24.4248C71.4431 24.4248 72.5351 24.9277 73.4087 25.9346C74.2847 26.9426 74.7215 28.2678 74.7215 29.9114ZM72.2116 29.9992C72.2116 28.9484 71.9689 28.0822 71.4813 27.4004C70.9486 26.6894 70.2333 26.3339 69.3366 26.3339C68.7287 26.3339 68.1764 26.5319 67.683 26.9223C67.1884 27.3161 66.8648 27.8302 66.7135 28.4669C66.6372 28.7639 66.5991 29.0069 66.5991 29.1982V30.9982C66.5991 31.7834 66.8463 32.4461 67.3409 32.9872C67.8355 33.5283 68.478 33.7983 69.2684 33.7983C70.1963 33.7983 70.9185 33.4496 71.4351 32.7543C71.9527 32.0579 72.2116 31.1399 72.2116 29.9992Z" fill="white"/>
<path d="M87.4742 29.9114C87.4742 31.7474 86.9646 33.1987 85.9443 34.2641C85.0325 35.2124 83.8989 35.6861 82.5458 35.6861C81.0851 35.6861 80.0359 35.1753 79.398 34.1538H79.3518V39.8407H76.8882V28.2003C76.8882 27.0461 76.857 25.8614 76.7969 24.6464H78.9635L79.1011 26.3576H79.1473C79.9677 25.0683 81.2146 24.4248 82.889 24.4248C84.1959 24.4248 85.2879 24.9277 86.1638 25.9346C87.0363 26.9426 87.4742 28.2678 87.4742 29.9114ZM84.9643 29.9992C84.9643 28.9484 84.7205 28.0822 84.2329 27.4004C83.7002 26.6894 82.9872 26.3339 82.0893 26.3339C81.4803 26.3339 80.9291 26.5319 80.4346 26.9223C79.94 27.3161 79.6176 27.8302 79.4662 28.4669C79.3911 28.7639 79.3518 29.0069 79.3518 29.1982V30.9982C79.3518 31.7834 79.5991 32.4461 80.0914 32.9872C80.5859 33.5272 81.2284 33.7983 82.0211 33.7983C82.9491 33.7983 83.6713 33.4496 84.1878 32.7543C84.7055 32.0579 84.9643 31.1399 84.9643 29.9992Z" fill="white"/>
<path d="M101.736 31.2434C101.736 32.5169 101.281 33.553 100.37 34.3529C99.3679 35.227 97.9731 35.6635 96.1808 35.6635C94.5261 35.6635 93.1995 35.353 92.1953 34.7309L92.7662 32.7317C93.8478 33.3685 95.0345 33.688 96.3276 33.688C97.2555 33.688 97.9777 33.4832 98.4966 33.076C99.0131 32.6687 99.2708 32.122 99.2708 31.4402C99.2708 30.8327 99.0582 30.3209 98.6318 29.9057C98.2077 29.4906 97.4993 29.1047 96.5102 28.7481C93.8177 27.7705 92.4727 26.3384 92.4727 24.4551C92.4727 23.2244 92.9441 22.2152 93.8882 21.43C94.8288 20.6436 96.0838 20.251 97.653 20.251C99.0524 20.251 100.215 20.4884 101.143 20.962L100.527 22.9172C99.6602 22.4582 98.6803 22.2287 97.5837 22.2287C96.717 22.2287 96.0399 22.4369 95.5545 22.8509C95.1443 23.221 94.9386 23.6721 94.9386 24.2065C94.9386 24.7982 95.1732 25.2876 95.6446 25.6724C96.0549 26.0279 96.8002 26.4126 97.8818 26.8277C99.2049 27.3464 100.177 27.9527 100.802 28.648C101.425 29.341 101.736 30.2084 101.736 31.2434Z" fill="white"/>
<path d="M109.88 26.4464H107.164V31.6878C107.164 33.0209 107.643 33.6869 108.602 33.6869C109.042 33.6869 109.407 33.6498 109.696 33.5755L109.764 35.3969C109.279 35.5735 108.64 35.6624 107.849 35.6624C106.876 35.6624 106.115 35.3733 105.566 34.7962C105.02 34.2179 104.745 33.2482 104.745 31.8858V26.4442H103.127V24.6442H104.745V22.6675L107.164 21.9565V24.6442H109.88V26.4464Z" fill="white"/>
<path d="M122.133 29.9554C122.133 31.6148 121.645 32.9771 120.672 34.0425C119.652 35.1394 118.297 35.6861 116.609 35.6861C114.982 35.6861 113.687 35.1608 112.721 34.11C111.755 33.0593 111.271 31.7329 111.271 30.1343C111.271 28.4614 111.768 27.0912 112.766 26.0258C113.761 24.9593 115.103 24.426 116.792 24.426C118.419 24.426 119.728 24.9514 120.716 26.0033C121.661 27.0237 122.133 28.341 122.133 29.9554ZM119.576 30.033C119.576 29.0374 119.358 28.1835 118.915 27.4714C118.399 26.6097 117.661 26.1799 116.704 26.1799C115.713 26.1799 114.961 26.6108 114.445 27.4714C114.002 28.1847 113.784 29.052 113.784 30.078C113.784 31.0736 114.002 31.9275 114.445 32.6385C114.977 33.5003 115.722 33.93 116.682 33.93C117.622 33.93 118.361 33.4913 118.894 32.616C119.348 31.8904 119.576 31.0275 119.576 30.033Z" fill="white"/>
<path d="M130.14 26.7558C129.896 26.7119 129.636 26.6894 129.363 26.6894C128.496 26.6894 127.826 27.0078 127.355 27.6457C126.945 28.2082 126.739 28.9192 126.739 29.7776V35.4419H124.276L124.299 28.0462C124.299 26.8019 124.268 25.6691 124.207 24.6476H126.353L126.443 26.7131H126.511C126.771 26.0032 127.181 25.4317 127.743 25.0031C128.292 24.6172 128.885 24.4248 129.524 24.4248C129.751 24.4248 129.957 24.4406 130.14 24.4687V26.7558Z" fill="white"/>
<path d="M141.159 29.5334C141.159 29.9632 141.13 30.3254 141.069 30.6213H133.678C133.707 31.6878 134.064 32.5034 134.751 33.0659C135.373 33.5688 136.179 33.8208 137.168 33.8208C138.262 33.8208 139.261 33.6509 140.159 33.31L140.544 34.975C139.495 35.4205 138.256 35.6422 136.827 35.6422C135.108 35.6422 133.758 35.1494 132.776 34.165C131.796 33.1807 131.305 31.8588 131.305 30.2005C131.305 28.5727 131.761 27.217 132.675 26.1359C133.632 24.9817 134.925 24.4045 136.552 24.4045C138.15 24.4045 139.36 24.9817 140.182 26.1359C140.832 27.0528 141.159 28.1868 141.159 29.5334ZM138.81 28.9113C138.826 28.2003 138.666 27.586 138.332 27.0674C137.905 26.4003 137.25 26.0673 136.368 26.0673C135.563 26.0673 134.908 26.3924 134.407 27.0449C133.997 27.5635 133.753 28.1857 133.678 28.9102H138.81V28.9113Z" fill="white"/>
<path d="M56.6807 11.2602C56.6807 12.5843 56.2728 13.581 55.4581 14.2504C54.7035 14.868 53.6312 15.1774 52.2422 15.1774C51.5535 15.1774 50.9641 15.1482 50.4707 15.0897V7.85478C51.1143 7.75353 51.8077 7.70178 52.5565 7.70178C53.8796 7.70178 54.8768 7.98191 55.5494 8.54216C56.3028 9.17553 56.6807 10.0812 56.6807 11.2602ZM55.4038 11.2928C55.4038 10.4344 55.1704 9.77628 54.7035 9.31728C54.2367 8.85941 53.5549 8.62991 52.657 8.62991C52.2757 8.62991 51.951 8.65466 51.6817 8.70641V14.2065C51.8308 14.229 52.1035 14.2392 52.4999 14.2392C53.4266 14.2392 54.1419 13.9883 54.6457 13.4865C55.1496 12.9848 55.4038 12.2535 55.4038 11.2928Z" fill="white"/>
<path d="M63.4504 12.4167C63.4504 13.2323 63.2112 13.9006 62.7328 14.4248C62.2313 14.9637 61.5669 15.2326 60.7372 15.2326C59.9375 15.2326 59.3008 14.9749 58.8259 14.4574C58.3521 13.9411 58.1152 13.2897 58.1152 12.5044C58.1152 11.6832 58.3591 11.0093 58.849 10.4862C59.339 9.96305 59.9976 9.70093 60.8273 9.70093C61.627 9.70093 62.2695 9.95855 62.7559 10.4749C63.2182 10.9767 63.4504 11.6247 63.4504 12.4167ZM62.1943 12.4549C62.1943 11.9656 62.0857 11.5459 61.8696 11.1961C61.6154 10.7731 61.2537 10.5616 60.7834 10.5616C60.2969 10.5616 59.9271 10.7731 59.6729 11.1961C59.4557 11.5459 59.3482 11.9723 59.3482 12.4763C59.3482 12.9657 59.4568 13.3853 59.6729 13.7352C59.9352 14.1582 60.3004 14.3697 60.7719 14.3697C61.2341 14.3697 61.5969 14.1548 61.8581 13.7239C62.0823 13.3673 62.1943 12.9443 62.1943 12.4549Z" fill="white"/>
<path d="M72.5292 9.80896L70.8247 15.1122H69.7154L69.0093 12.8093C68.8302 12.2345 68.6846 11.663 68.5714 11.096H68.5494C68.4443 11.6787 68.2987 12.2491 68.1115 12.8093L67.3615 15.1122H66.2395L64.6367 9.80896H65.8813L66.4972 12.3301C66.6462 12.9263 66.7687 13.4945 66.8669 14.0322H66.8889C66.979 13.589 67.1281 13.0242 67.3384 12.3413L68.1115 9.81009H69.0983L69.839 12.2873C70.0181 12.8915 70.1637 13.4731 70.2758 14.0333H70.3093C70.3914 13.4877 70.515 12.9061 70.6791 12.2873L71.3401 9.81009H72.5292V9.80896Z" fill="white"/>
<path d="M78.8079 15.1121H77.5969V12.0746C77.5969 11.1386 77.2318 10.6706 76.4991 10.6706C76.1398 10.6706 75.8497 10.7989 75.6244 11.0565C75.4014 11.3141 75.2881 11.6179 75.2881 11.9655V15.111H74.0771V11.3243C74.0771 10.8585 74.0621 10.3534 74.0332 9.80663H75.0975L75.1541 10.6358H75.1876C75.3286 10.3781 75.5389 10.1655 75.8151 9.99564C76.1432 9.79764 76.5107 9.69751 76.9128 9.69751C77.4213 9.69751 77.8442 9.85726 78.1805 10.1779C78.5988 10.5705 78.8079 11.1566 78.8079 11.9351V15.1121Z" fill="white"/>
<path d="M82.1474 15.1121H80.9375V7.37549H82.1474V15.1121Z" fill="white"/>
<path d="M89.2766 12.4167C89.2766 13.2323 89.0374 13.9006 88.559 14.4248C88.0575 14.9637 87.3919 15.2326 86.5634 15.2326C85.7626 15.2326 85.1258 14.9749 84.6521 14.4574C84.1783 13.9411 83.9414 13.2897 83.9414 12.5044C83.9414 11.6832 84.1852 11.0093 84.6752 10.4862C85.1651 9.96305 85.8238 9.70093 86.6523 9.70093C87.4531 9.70093 88.0945 9.95855 88.5821 10.4749C89.0443 10.9767 89.2766 11.6247 89.2766 12.4167ZM88.0194 12.4549C88.0194 11.9656 87.9107 11.5459 87.6947 11.1961C87.4416 10.7731 87.0787 10.5616 86.6096 10.5616C86.1219 10.5616 85.7522 10.7731 85.4991 11.1961C85.2819 11.5459 85.1744 11.9723 85.1744 12.4763C85.1744 12.9657 85.283 13.3853 85.4991 13.7352C85.7614 14.1582 86.1266 14.3697 86.598 14.3697C87.0603 14.3697 87.4219 14.1548 87.6831 13.7239C87.9084 13.3673 88.0194 12.9443 88.0194 12.4549Z" fill="white"/>
<path d="M95.138 15.1122H94.0506L93.9605 14.5013H93.927C93.5549 14.9884 93.0245 15.2326 92.3358 15.2326C91.8216 15.2326 91.4056 15.0717 91.0924 14.7522C90.8082 14.4619 90.666 14.1008 90.666 13.6722C90.666 13.0242 90.9433 12.5303 91.5015 12.1883C92.0585 11.8463 92.8419 11.6787 93.8507 11.6866V11.5876C93.8507 10.8889 93.474 10.5402 92.7194 10.5402C92.1821 10.5402 91.7083 10.6718 91.2993 10.9328L91.0531 10.1588C91.5593 9.85393 92.1844 9.70093 92.9217 9.70093C94.3453 9.70093 95.0594 10.4322 95.0594 11.8947V13.8477C95.0594 14.3776 95.086 14.7994 95.138 15.1122ZM93.8808 13.2897V12.4718C92.5449 12.4493 91.877 12.8059 91.877 13.5406C91.877 13.8173 91.9533 14.0243 92.1093 14.1627C92.2653 14.3011 92.4641 14.3697 92.7009 14.3697C92.9667 14.3697 93.2152 14.2876 93.4417 14.1244C93.6693 13.9602 93.8091 13.7521 93.8611 13.4967C93.8738 13.4393 93.8808 13.3696 93.8808 13.2897Z" fill="white"/>
<path d="M102.018 15.1121H100.944L100.887 14.2605H100.854C100.51 14.9085 99.9256 15.2325 99.104 15.2325C98.4477 15.2325 97.9011 14.9816 97.4678 14.4799C97.0344 13.9781 96.8184 13.3267 96.8184 12.5269C96.8184 11.6685 97.0529 10.9732 97.5244 10.4422C97.9808 9.94724 98.5401 9.69974 99.2057 9.69974C99.9372 9.69974 100.449 9.93936 100.74 10.4197H100.763V7.37549H101.976V13.6834C101.976 14.1997 101.989 14.6756 102.018 15.1121ZM100.763 12.8756V11.9914C100.763 11.8384 100.752 11.7146 100.73 11.6201C100.662 11.3366 100.515 11.0981 100.292 10.9057C100.067 10.7134 99.7951 10.6166 99.4819 10.6166C99.0301 10.6166 98.6765 10.791 98.4165 11.1409C98.1588 11.4907 98.0282 11.9374 98.0282 12.483C98.0282 13.0072 98.1519 13.4325 98.4003 13.7599C98.6626 14.1086 99.0162 14.283 99.4588 14.283C99.8563 14.283 100.174 14.1379 100.416 13.8465C100.649 13.5776 100.763 13.2536 100.763 12.8756Z" fill="white"/>
<path d="M112.376 12.4167C112.376 13.2323 112.137 13.9006 111.659 14.4248C111.157 14.9637 110.494 15.2326 109.663 15.2326C108.864 15.2326 108.228 14.9749 107.752 14.4574C107.278 13.9411 107.041 13.2897 107.041 12.5044C107.041 11.6832 107.285 11.0093 107.775 10.4862C108.265 9.96305 108.923 9.70093 109.754 9.70093C110.553 9.70093 111.196 9.95855 111.682 10.4749C112.144 10.9767 112.376 11.6247 112.376 12.4167ZM111.121 12.4549C111.121 11.9656 111.013 11.5459 110.797 11.1961C110.541 10.7731 110.181 10.5616 109.709 10.5616C109.224 10.5616 108.854 10.7731 108.599 11.1961C108.381 11.5459 108.274 11.9723 108.274 12.4763C108.274 12.9657 108.383 13.3853 108.599 13.7352C108.861 14.1582 109.226 14.3697 109.698 14.3697C110.16 14.3697 110.524 14.1548 110.785 13.7239C111.008 13.3673 111.121 12.9443 111.121 12.4549Z" fill="white"/>
<path d="M118.887 15.1121H117.677V12.0746C117.677 11.1386 117.312 10.6706 116.578 10.6706C116.219 10.6706 115.929 10.7989 115.704 11.0565C115.48 11.3141 115.368 11.6179 115.368 11.9655V15.111H114.156V11.3243C114.156 10.8585 114.142 10.3534 114.113 9.80663H115.176L115.233 10.6358H115.267C115.409 10.3781 115.619 10.1655 115.894 9.99564C116.223 9.79764 116.59 9.69751 116.993 9.69751C117.5 9.69751 117.923 9.85726 118.259 10.1779C118.679 10.5705 118.887 11.1566 118.887 11.9351V15.1121Z" fill="white"/>
<path d="M127.038 10.692H125.705V13.2683C125.705 13.923 125.942 14.2504 126.411 14.2504C126.628 14.2504 126.808 14.2324 126.95 14.1953L126.982 15.0897C126.742 15.1774 126.428 15.2213 126.041 15.2213C125.563 15.2213 125.191 15.0795 124.921 14.796C124.651 14.5125 124.517 14.0355 124.517 13.3662V10.692H123.721V9.80891H124.517V8.83691L125.704 8.48816V9.80778H127.037V10.692H127.038Z" fill="white"/>
<path d="M133.45 15.1121H132.237V12.0971C132.237 11.1465 131.872 10.6706 131.141 10.6706C130.579 10.6706 130.196 10.9462 129.985 11.4975C129.949 11.6134 129.929 11.7551 129.929 11.9216V15.111H128.719V7.37549H129.929V10.5716H129.952C130.333 9.98999 130.88 9.69974 131.588 9.69974C132.09 9.69974 132.504 9.85949 132.834 10.1801C133.244 10.5795 133.45 11.1735 133.45 11.9587V15.1121Z" fill="white"/>
<path d="M140.062 12.2095C140.062 12.421 140.046 12.5988 140.017 12.7439H136.385C136.401 13.2682 136.574 13.6675 136.91 13.9443C137.218 14.1918 137.614 14.3155 138.1 14.3155C138.637 14.3155 139.127 14.2323 139.568 14.0647L139.758 14.8837C139.241 15.1019 138.633 15.211 137.93 15.211C137.086 15.211 136.422 14.9692 135.941 14.4854C135.458 14.0017 135.219 13.3525 135.219 12.538C135.219 11.7382 135.442 11.0722 135.891 10.5412C136.36 9.97417 136.995 9.69067 137.796 9.69067C138.579 9.69067 139.174 9.97417 139.576 10.5412C139.901 10.9912 140.062 11.548 140.062 12.2095ZM138.906 11.9047C138.915 11.5548 138.836 11.2533 138.672 10.999C138.461 10.6717 138.141 10.5074 137.708 10.5074C137.313 10.5074 136.99 10.6672 136.744 10.9878C136.543 11.2432 136.424 11.548 136.385 11.9047H138.906Z" fill="white"/>
</svg>
