<svg width="250" height="196" viewBox="0 0 250 196" fill="none" xmlns="http://www.w3.org/2000/svg">
<circle cx="4.99996" cy="4.45455" r="4.45455" fill="white"/>
<circle cx="4.99996" cy="31.1818" r="4.45455" fill="white"/>
<circle cx="4.99996" cy="57.9089" r="4.45455" fill="white"/>
<circle cx="4.99996" cy="84.6362" r="4.45455" fill="white"/>
<circle cx="4.99996" cy="111.364" r="4.45455" fill="white"/>
<circle cx="4.99996" cy="138.091" r="4.45455" fill="white"/>
<circle cx="4.99996" cy="164.818" r="4.45455" fill="white"/>
<circle cx="4.99996" cy="191.545" r="4.45455" fill="white"/>
<circle cx="31.7272" cy="4.45455" r="4.45455" fill="white"/>
<circle cx="31.7272" cy="31.1818" r="4.45455" fill="white"/>
<circle cx="31.7272" cy="57.9089" r="4.45455" fill="white"/>
<circle cx="31.7272" cy="84.6362" r="4.45455" fill="white"/>
<circle cx="31.7272" cy="111.364" r="4.45455" fill="white"/>
<circle cx="31.7272" cy="138.091" r="4.45455" fill="white"/>
<circle cx="31.7272" cy="164.818" r="4.45455" fill="white"/>
<circle cx="31.7272" cy="191.545" r="4.45455" fill="white"/>
<circle cx="58.4545" cy="4.45455" r="4.45455" fill="white"/>
<circle cx="58.4545" cy="31.1818" r="4.45455" fill="white"/>
<circle cx="58.4545" cy="57.9089" r="4.45455" fill="white"/>
<circle cx="58.4545" cy="84.6362" r="4.45455" fill="white"/>
<circle cx="58.4545" cy="111.364" r="4.45455" fill="white"/>
<circle cx="58.4545" cy="138.091" r="4.45455" fill="white"/>
<circle cx="58.4545" cy="164.818" r="4.45455" fill="white"/>
<circle cx="58.4545" cy="191.545" r="4.45455" fill="white"/>
<circle cx="85.1818" cy="4.45455" r="4.45455" fill="white"/>
<circle cx="85.1818" cy="31.1818" r="4.45455" fill="white"/>
<circle cx="85.1818" cy="57.9089" r="4.45455" fill="white"/>
<circle cx="85.1818" cy="84.6362" r="4.45455" fill="white"/>
<circle cx="85.1818" cy="111.364" r="4.45455" fill="white"/>
<circle cx="85.1818" cy="138.091" r="4.45455" fill="white"/>
<circle cx="85.1818" cy="164.818" r="4.45455" fill="white"/>
<circle cx="85.1818" cy="191.545" r="4.45455" fill="white"/>
<circle cx="111.909" cy="4.45455" r="4.45455" fill="white"/>
<circle cx="111.909" cy="31.1818" r="4.45455" fill="white"/>
<circle cx="111.909" cy="57.9089" r="4.45455" fill="white"/>
<circle cx="111.909" cy="84.6362" r="4.45455" fill="white"/>
<circle cx="111.909" cy="111.364" r="4.45455" fill="white"/>
<circle cx="111.909" cy="138.091" r="4.45455" fill="white"/>
<circle cx="111.909" cy="164.818" r="4.45455" fill="white"/>
<circle cx="111.909" cy="191.545" r="4.45455" fill="white"/>
<circle cx="138.636" cy="4.45455" r="4.45455" fill="white"/>
<circle cx="138.636" cy="31.1818" r="4.45455" fill="white"/>
<circle cx="138.636" cy="57.9089" r="4.45455" fill="white"/>
<circle cx="138.636" cy="84.6362" r="4.45455" fill="white"/>
<circle cx="138.636" cy="111.364" r="4.45455" fill="white"/>
<circle cx="138.636" cy="138.091" r="4.45455" fill="white"/>
<circle cx="138.636" cy="164.818" r="4.45455" fill="white"/>
<circle cx="138.636" cy="191.545" r="4.45455" fill="white"/>
<circle cx="165.363" cy="4.45455" r="4.45455" fill="white"/>
<circle cx="165.363" cy="31.1818" r="4.45455" fill="white"/>
<circle cx="165.363" cy="57.9089" r="4.45455" fill="white"/>
<circle cx="165.363" cy="84.6362" r="4.45455" fill="white"/>
<circle cx="165.363" cy="111.364" r="4.45455" fill="white"/>
<circle cx="165.363" cy="138.091" r="4.45455" fill="white"/>
<circle cx="165.363" cy="164.818" r="4.45455" fill="white"/>
<circle cx="165.363" cy="191.545" r="4.45455" fill="white"/>
<circle cx="192.091" cy="4.45455" r="4.45455" fill="white"/>
<circle cx="192.091" cy="31.1818" r="4.45455" fill="white"/>
<circle cx="192.091" cy="57.9089" r="4.45455" fill="white"/>
<circle cx="192.091" cy="84.6362" r="4.45455" fill="white"/>
<circle cx="192.091" cy="111.364" r="4.45455" fill="white"/>
<circle cx="192.091" cy="138.091" r="4.45455" fill="white"/>
<circle cx="192.091" cy="164.818" r="4.45455" fill="white"/>
<circle cx="192.091" cy="191.545" r="4.45455" fill="white"/>
<circle cx="218.818" cy="4.45455" r="4.45455" fill="white"/>
<circle cx="218.818" cy="31.1818" r="4.45455" fill="white"/>
<circle cx="218.818" cy="57.9089" r="4.45455" fill="white"/>
<circle cx="218.818" cy="84.6362" r="4.45455" fill="white"/>
<circle cx="218.818" cy="111.364" r="4.45455" fill="white"/>
<circle cx="218.818" cy="138.091" r="4.45455" fill="white"/>
<circle cx="218.818" cy="164.818" r="4.45455" fill="white"/>
<circle cx="218.818" cy="191.545" r="4.45455" fill="white"/>
<circle cx="245.545" cy="4.45455" r="4.45455" fill="white"/>
<circle cx="245.545" cy="31.1818" r="4.45455" fill="white"/>
<circle cx="245.545" cy="57.9089" r="4.45455" fill="white"/>
<circle cx="245.545" cy="84.6362" r="4.45455" fill="white"/>
<circle cx="245.545" cy="111.364" r="4.45455" fill="white"/>
<circle cx="245.545" cy="138.091" r="4.45455" fill="white"/>
<circle cx="245.545" cy="164.818" r="4.45455" fill="white"/>
<circle cx="245.545" cy="191.545" r="4.45455" fill="white"/>
</svg>
