<svg width="156" height="45" viewBox="0 0 156 45" fill="none" xmlns="http://www.w3.org/2000/svg">
<path d="M150.222 45H5.77778C2.60144 45 0 42.4673 0 39.375V5.62501C0 2.53267 2.60144 1.41886e-05 5.77778 1.41886e-05H150.222C153.399 1.41886e-05 156 2.53267 156 5.62501V39.375C156 42.4673 153.399 45 150.222 45Z" fill="black"/>
<path d="M150.222 0.901418C152.897 0.901418 155.074 3.02064 155.074 5.62501V39.375C155.074 41.9794 152.897 44.0986 150.222 44.0986H5.77778C3.10267 44.0986 0.925889 41.9794 0.925889 39.375V5.62501C0.925889 3.02064 3.10267 0.901418 5.77778 0.901418H150.222ZM150.222 1.41886e-05H5.77778C2.60144 1.41886e-05 0 2.53267 0 5.62501V39.375C0 42.4673 2.60144 45 5.77778 45H150.222C153.399 45 156 42.4673 156 39.375V5.62501C156 2.53267 153.399 1.41886e-05 150.222 1.41886e-05Z" fill="#A6A6A6"/>
<path d="M54.7936 11.5245C54.7936 12.4639 54.5047 13.2162 53.9356 13.7773C53.2813 14.4425 52.429 14.7771 51.3847 14.7771C50.3866 14.7771 49.5344 14.4368 48.8353 13.766C48.1347 13.0854 47.7852 12.2501 47.7852 11.2503C47.7852 10.2504 48.1347 9.41511 48.8353 8.74011C49.5344 8.0637 50.3866 7.72339 51.3847 7.72339C51.8816 7.72339 52.3554 7.82323 52.8075 8.00886C53.2582 8.19589 53.625 8.44901 53.8908 8.7612L53.287 9.35464C52.8234 8.82167 52.1922 8.5587 51.3847 8.5587C50.6567 8.5587 50.0255 8.8062 49.4896 9.30542C48.9595 9.80604 48.6937 10.4543 48.6937 11.2503C48.6937 12.0462 48.9595 12.7001 49.4896 13.2007C50.0255 13.6943 50.6567 13.9474 51.3847 13.9474C52.1575 13.9474 52.8075 13.6943 53.3203 13.1951C53.6583 12.8646 53.8504 12.409 53.9009 11.8268H51.3847V11.014H54.7416C54.782 11.1898 54.7936 11.3599 54.7936 11.5245Z" fill="white" stroke="white" stroke-width="0.122383" stroke-miterlimit="10"/>
<path d="M60.1201 8.70584H56.9669V10.8433H59.8096V11.6562H56.9669V13.7937H60.1201V14.6219H56.0742V7.87756H60.1201V8.70584Z" fill="white" stroke="white" stroke-width="0.122383" stroke-miterlimit="10"/>
<path d="M63.8776 14.6219H62.9849V8.70584H61.0508V7.87756H65.8131V8.70584H63.8776V14.6219Z" fill="white" stroke="white" stroke-width="0.122383" stroke-miterlimit="10"/>
<path d="M69.2598 14.6219V7.87756H70.151V14.6219H69.2598Z" fill="white" stroke="white" stroke-width="0.122383" stroke-miterlimit="10"/>
<path d="M74.1022 14.6219H73.2167V8.70584H71.2754V7.87756H76.0435V8.70584H74.1022V14.6219Z" fill="white" stroke="white" stroke-width="0.122383" stroke-miterlimit="10"/>
<path d="M85.0588 13.7548C84.3756 14.4368 83.5291 14.7771 82.5195 14.7771C81.504 14.7771 80.6576 14.4368 79.9743 13.7548C79.2926 13.0742 78.9531 12.2389 78.9531 11.2503C78.9531 10.2617 79.2926 9.42636 79.9743 8.74573C80.6576 8.0637 81.504 7.72339 82.5195 7.72339C83.5233 7.72339 84.3698 8.0637 85.053 8.75136C85.7406 9.43761 86.08 10.2673 86.08 11.2503C86.08 12.2389 85.7406 13.0742 85.0588 13.7548ZM80.6345 13.1895C81.1487 13.6943 81.7741 13.9474 82.5195 13.9474C83.259 13.9474 83.8902 13.6943 84.3987 13.1895C84.9115 12.6846 85.1715 12.0364 85.1715 11.2503C85.1715 10.4642 84.9115 9.81589 84.3987 9.31105C83.8902 8.8062 83.259 8.55308 82.5195 8.55308C81.7741 8.55308 81.1487 8.8062 80.6345 9.31105C80.1217 9.81589 79.8617 10.4642 79.8617 11.2503C79.8617 12.0364 80.1217 12.6846 80.6345 13.1895Z" fill="white" stroke="white" stroke-width="0.122383" stroke-miterlimit="10"/>
<path d="M87.332 14.6219V7.87756H88.4154L91.7838 13.1229H91.8228L91.7838 11.8263V7.87756H92.675V14.6219H91.7448L88.2175 9.11788H88.1785L88.2175 10.4201V14.6219H87.332Z" fill="white" stroke="white" stroke-width="0.122383" stroke-miterlimit="10"/>
<path d="M78.7336 24.4715C76.0195 24.4715 73.8023 26.4825 73.8023 29.257C73.8023 32.009 76.0195 34.0411 78.7336 34.0411C81.4535 34.0411 83.6707 32.009 83.6707 29.257C83.6707 26.4825 81.4535 24.4715 78.7336 24.4715ZM78.7336 32.1567C77.2444 32.1567 75.9632 30.96 75.9632 29.257C75.9632 27.5315 77.2444 26.3559 78.7336 26.3559C80.2228 26.3559 81.5098 27.5315 81.5098 29.257C81.5098 30.96 80.2228 32.1567 78.7336 32.1567ZM67.9739 24.4715C65.254 24.4715 63.0426 26.4825 63.0426 29.257C63.0426 32.009 65.254 34.0411 67.9739 34.0411C70.6924 34.0411 72.9053 32.009 72.9053 29.257C72.9053 26.4825 70.6924 24.4715 67.9739 24.4715ZM67.9739 32.1567C66.4833 32.1567 65.1977 30.96 65.1977 29.257C65.1977 27.5315 66.4833 26.3559 67.9739 26.3559C69.4631 26.3559 70.7444 27.5315 70.7444 29.257C70.7444 30.96 69.4631 32.1567 67.9739 32.1567ZM55.1704 25.9383V27.9717H60.158C60.0122 29.1079 59.6222 29.9433 59.0242 30.5254C58.2962 31.2286 57.1623 32.009 55.1704 32.009C52.1009 32.009 49.6974 29.5973 49.6974 26.609C49.6974 23.6208 52.1009 21.209 55.1704 21.209C56.83 21.209 58.0376 21.8405 58.9288 22.6589L60.4007 21.2259C59.1542 20.0672 57.4959 19.177 55.1704 19.177C50.9613 19.177 47.4238 22.5112 47.4238 26.609C47.4238 30.7069 50.9613 34.0411 55.1704 34.0411C57.4454 34.0411 59.1542 33.3154 60.4975 31.9542C61.874 30.614 62.303 28.7297 62.303 27.2081C62.303 26.7356 62.2626 26.3011 62.1904 25.9383H55.1704ZM107.526 27.5147C107.12 26.4445 105.867 24.4715 103.317 24.4715C100.789 24.4715 98.6843 26.4108 98.6843 29.257C98.6843 31.9373 100.767 34.0411 103.559 34.0411C105.817 34.0411 107.12 32.7009 107.656 31.9204L105.98 30.8334C105.421 31.6294 104.66 32.1567 103.559 32.1567C102.466 32.1567 101.681 31.6687 101.179 30.7069L107.752 28.0589L107.526 27.5147ZM100.823 29.1079C100.767 27.2629 102.295 26.3179 103.39 26.3179C104.248 26.3179 104.976 26.7356 105.219 27.3333L100.823 29.1079ZM95.4805 33.75H97.6414V19.6875H95.4805V33.75ZM91.9416 25.5375H91.8694C91.384 24.9778 90.4582 24.4715 89.2853 24.4715C86.8239 24.4715 84.5735 26.5753 84.5735 29.2725C84.5735 31.9542 86.8239 34.0411 89.2853 34.0411C90.4582 34.0411 91.384 33.5306 91.8694 32.954H91.9416V33.6403C91.9416 35.4698 90.9377 36.4528 89.3185 36.4528C87.9983 36.4528 87.1793 35.5247 86.8413 34.7442L84.962 35.5078C85.5037 36.7762 86.938 38.3372 89.3185 38.3372C91.852 38.3372 93.9898 36.8859 93.9898 33.3548V24.7626H91.9416V25.5375ZM89.4701 32.1567C87.9809 32.1567 86.7344 30.9431 86.7344 29.2725C86.7344 27.5864 87.9809 26.3559 89.4701 26.3559C90.9377 26.3559 92.0947 27.5864 92.0947 29.2725C92.0947 30.9431 90.9377 32.1567 89.4701 32.1567ZM117.643 19.6875H112.474V33.75H114.629V28.4217H117.643C120.036 28.4217 122.383 26.7356 122.383 24.0539C122.383 21.3736 120.03 19.6875 117.643 19.6875ZM117.699 26.4656H114.629V21.6436H117.699C119.308 21.6436 120.227 22.9444 120.227 24.0539C120.227 25.1423 119.308 26.4656 117.699 26.4656ZM131.021 24.4448C129.464 24.4448 127.845 25.1142 127.179 26.5978L129.091 27.3783C129.503 26.5978 130.26 26.3447 131.06 26.3447C132.178 26.3447 133.312 26.9986 133.329 28.1531V28.3008C132.939 28.0814 132.104 27.7565 131.077 27.7565C129.018 27.7565 126.919 28.8604 126.919 30.9206C126.919 32.805 128.606 34.0186 130.502 34.0186C131.953 34.0186 132.753 33.3815 133.256 32.6404H133.329V33.7275H135.411V28.3331C135.411 25.8398 133.498 24.4448 131.021 24.4448ZM130.761 32.1511C130.056 32.1511 129.074 31.8108 129.074 30.96C129.074 29.8715 130.299 29.4539 131.359 29.4539C132.308 29.4539 132.753 29.6578 133.329 29.9264C133.16 31.2286 132.009 32.1511 130.761 32.1511ZM142.994 24.7528L140.517 30.8489H140.443L137.882 24.7528H135.558L139.406 33.2718L137.21 38.0123H139.462L145.392 24.7528H142.994ZM123.568 33.75H125.729V19.6875H123.568V33.75Z" fill="white"/>
<path d="M12.0574 8.48121C11.7179 8.82715 11.5215 9.36574 11.5215 10.0632V34.9426C11.5215 35.6401 11.7179 36.1787 12.0574 36.5246L12.1412 36.6006L26.4614 22.6646V22.3356L12.1412 8.39965L12.0574 8.48121Z" fill="url(#paint0_linear_308_52197)"/>
<path d="M31.231 27.3123L26.4629 22.6646V22.3355L31.2368 17.6879L31.3437 17.7484L36.9972 20.8801C38.6107 21.7688 38.6107 23.2313 36.9972 24.1257L31.3437 27.2518L31.231 27.3123Z" fill="url(#paint1_linear_308_52197)"/>
<path d="M31.3434 27.2518L26.4626 22.5001L12.0586 36.5246C12.5945 37.073 13.4684 37.1391 14.4621 36.5907L31.3434 27.2518Z" fill="url(#paint2_linear_308_52197)"/>
<path d="M31.3434 17.7483L14.4621 8.40938C13.4684 7.86657 12.5945 7.93266 12.0586 8.4811L26.4626 22.5L31.3434 17.7483Z" fill="url(#paint3_linear_308_52197)"/>
<defs>
<linearGradient id="paint0_linear_308_52197" x1="25.1899" y1="35.2017" x2="6.31649" y2="15.8157" gradientUnits="userSpaceOnUse">
<stop stop-color="#00A0FF"/>
<stop offset="0.0066" stop-color="#00A1FF"/>
<stop offset="0.2601" stop-color="#00BEFF"/>
<stop offset="0.5122" stop-color="#00D2FF"/>
<stop offset="0.7604" stop-color="#00DFFF"/>
<stop offset="1" stop-color="#00E3FF"/>
</linearGradient>
<linearGradient id="paint1_linear_308_52197" x1="39.0982" y1="22.4985" x2="11.1373" y2="22.4985" gradientUnits="userSpaceOnUse">
<stop stop-color="#FFE000"/>
<stop offset="0.4087" stop-color="#FFBD00"/>
<stop offset="0.7754" stop-color="#FFA500"/>
<stop offset="1" stop-color="#FF9C00"/>
</linearGradient>
<linearGradient id="paint2_linear_308_52197" x1="28.6893" y1="19.917" x2="3.09546" y2="-6.37208" gradientUnits="userSpaceOnUse">
<stop stop-color="#FF3A44"/>
<stop offset="1" stop-color="#C31162"/>
</linearGradient>
<linearGradient id="paint3_linear_308_52197" x1="8.43281" y1="44.8018" x2="19.8616" y2="33.0626" gradientUnits="userSpaceOnUse">
<stop stop-color="#32A071"/>
<stop offset="0.0685" stop-color="#2DA771"/>
<stop offset="0.4762" stop-color="#15CF74"/>
<stop offset="0.8009" stop-color="#06E775"/>
<stop offset="1" stop-color="#00F076"/>
</linearGradient>
</defs>
</svg>
