<svg width="554" height="564" viewBox="0 0 554 564" fill="none" xmlns="http://www.w3.org/2000/svg">
<path d="M218.376 34.2504C203.737 -3.83598 131.318 -22.6437 143.268 53.1895C145.228 65.6237 145.425 87.0341 143.268 113.095C141.293 136.968 102.618 150.031 90.7457 180.878C72.127 229.255 141.741 262.974 130.663 288.405C116.153 321.713 71.726 336.165 47.1519 354.388C24.0181 371.542 9.28253 399.068 3.62463 427.368C-6.30146 477.015 11.7119 529.045 61.333 531.633C86.1731 532.929 118.934 521.835 160.075 491.851C178.47 478.445 194.69 467.397 209.106 458.464C246.209 435.47 236.233 489.858 280.352 491.851C305.491 492.987 331.747 446.034 351.623 471.079C365.756 488.887 381.974 510.495 405.136 532.71C445.81 571.723 496.665 577.467 503.858 521.787C507.254 495.504 500.92 455.532 479.192 398.912C465.288 362.678 499.873 363.955 503.858 317.523C507.843 271.091 475.258 249.678 498.846 230.461L499.319 230.076C517.298 215.43 536.474 199.809 546.947 169.806C555.968 143.962 555.106 118.364 546.947 98.6955C538.215 77.6455 521.125 63.3856 498.846 62.8798C476.493 62.3723 448.916 75.7118 419.317 109.933C399.802 132.496 386.586 79.9958 351.623 85.3626C316.661 90.7293 311.801 141.385 290.857 126.693C254.474 101.171 235.52 78.8562 218.376 34.2504Z" stroke="black" stroke-opacity="0.17" stroke-width="1.19883"/>
<path d="M288.996 242.003C286.768 236.156 276.386 237.691 275.86 244.027C275.262 251.242 278.909 260.644 278.487 267.876C277.673 281.839 272.74 285.814 262.918 293.174C259.398 295.807 257.155 300.033 256.294 304.377C254.783 311.999 257.525 319.986 265.076 320.384C268.857 320.583 273.842 318.88 280.104 314.276C282.903 312.218 285.371 310.522 287.565 309.151C297.115 302.703 306.004 307.755 309.254 311.088C311.405 313.821 313.873 317.139 317.398 320.549C323.588 326.538 332.962 325.753 332.422 318.872C331.66 309.151 315.062 272.864 332.422 266.537C340.486 263.598 340.221 256.94 338.98 253.921C337.651 250.689 335.05 248.5 331.66 248.422C328.258 248.344 322.622 253.921 319.556 255.646C308.239 262.014 298.14 265.306 288.996 242.003Z" stroke="black" stroke-opacity="0.17" stroke-width="1.19883"/>
<path d="M155.377 69.7809C144.771 0.746216 210.95 17.9551 224.371 52.8706C240.801 95.5565 258.966 115.562 293.099 138.208C312.296 151.497 316.915 105.245 348.928 100.218C380.941 95.1904 393.172 142.832 411.083 122.307C438.322 91.1792 463.651 79.2402 484.111 79.9935C504.438 80.59 520.022 93.7822 527.895 113.151C535.247 131.264 535.854 154.769 527.28 178.415C516.088 206.523 499.927 224.018 483.514 238.322C462.076 256.117 491.524 275.772 487.621 318.045C483.718 360.317 451.895 359.038 464.265 391.734C483.714 442.94 489.252 479.008 485.967 502.674C479.275 553.182 432.727 547.767 395.37 512.193C373.949 491.903 358.773 472.275 345.479 456.364C327.195 433.701 303.081 476.573 279.953 475.726C239.526 474.12 248.346 424.779 214.359 445.787C201.016 454.003 186.058 464.089 169.149 476.277C131.029 503.521 100.971 512.893 78.5071 511.027C33.3972 508.476 17.0778 460.945 26.2101 415.601C31.4589 389.679 44.9975 364.481 66.2065 348.755C89.4592 331.511 130.331 318.004 143.607 286.44C153.706 262.976 90.2927 231.922 107.162 187.533C117.893 159.093 153.013 146.833 154.838 124.788C156.824 100.791 156.893 81.1338 155.377 69.7809Z" stroke="black" stroke-opacity="0.17" stroke-width="1.19883"/>
<path d="M168.029 87.071C158.782 25.0614 218.625 40.6148 230.808 72.2444C246.502 112.866 263.85 130.497 295.684 150.193C313.104 162.037 317.477 120.34 346.494 115.669C375.511 110.998 386.738 153.625 403.019 135.206C427.86 107.273 450.902 96.7736 469.438 97.7698C487.784 98.4546 501.839 110.535 508.843 128.16C515.377 144.656 515.728 165.992 507.612 187.362C495.81 213.218 482.933 232.513 468.246 246.315C448.99 262.629 475.257 280.461 471.441 318.435C467.625 356.409 438.613 355.132 449.429 384.184C466.571 429.809 471.306 461.855 468.136 482.828C461.953 527.998 419.781 522.93 385.797 490.913C366.147 472.614 352.035 455.031 339.6 441.068C322.935 420.861 300.997 459.511 279.914 458.954C243.237 457.741 250.89 413.608 220.069 432.562C207.817 440.033 194.143 449.123 178.745 460.053C143.701 484.468 116.391 492.09 96.3359 489.66C55.8032 487.155 41.2018 444.28 49.527 403.388C54.359 379.93 66.6808 357.142 85.9341 342.896C107.832 326.689 145.089 314.172 157.112 284.457C166.217 263.038 109.096 234.753 124.192 194.498C133.765 168.558 165.279 157.143 166.951 136.998C168.763 115.145 169.098 97.3054 168.029 87.071Z" stroke="black" stroke-opacity="0.17" stroke-width="1.19883"/>
<path d="M180.134 103.663C172.233 48.4524 225.832 62.4069 236.796 90.8654C251.777 129.566 268.337 144.888 297.921 161.708C313.592 172.149 317.724 134.856 343.79 130.525C369.856 126.193 380.097 163.962 394.772 147.581C417.253 122.741 438.045 113.642 454.686 114.884C471.079 115.659 483.627 126.672 489.772 142.615C495.498 157.555 495.594 176.799 487.924 195.971C475.492 219.668 465.88 240.827 452.896 254.175C435.792 269.066 458.919 285.139 455.184 318.954C451.45 352.769 425.202 351.489 434.482 377.003C449.342 417.215 453.281 445.357 450.221 463.712C444.54 503.711 406.677 498.972 376.014 470.395C358.104 454.02 345.035 438.417 333.439 426.351C318.366 408.527 298.572 443.095 279.501 442.826C246.518 442 253.015 402.915 225.313 419.883C214.132 426.636 201.722 434.764 187.811 444.476C155.789 466.151 131.183 472.053 113.507 469.052C77.4888 466.584 64.5828 428.208 72.1138 391.619C76.5365 370.539 87.6606 350.079 104.988 337.261C125.565 322.034 159.264 310.462 170.053 282.492C178.177 263.04 127.263 237.42 140.607 201.153C149.039 177.621 176.995 167.009 178.515 148.691C180.157 128.902 180.758 112.816 180.134 103.663Z" stroke="black" stroke-opacity="0.17" stroke-width="1.19883"/>
<path d="M192.779 120.255C186.239 71.8448 233.498 84.2001 243.224 109.487C257.466 146.271 273.208 159.282 300.49 173.224C314.384 182.261 318.269 149.372 341.337 145.381C364.405 141.389 373.642 174.297 386.687 159.955C406.767 138.21 425.272 130.512 439.988 132C454.4 132.866 465.418 142.812 470.692 157.074C475.601 170.457 475.441 187.608 468.23 204.582C455.19 226.12 448.861 249.15 437.603 262.045C422.682 275.513 442.627 289.828 438.98 319.482C435.334 349.136 411.897 347.854 419.625 369.828C432.177 404.623 435.312 428.859 432.368 444.597C427.197 479.422 393.712 475.012 366.423 449.875C350.285 435.425 338.282 421.803 327.546 411.635C314.093 396.194 296.477 426.68 279.452 426.7C250.221 426.261 255.55 392.225 231.016 407.207C220.927 413.243 209.802 420.408 197.402 428.902C168.459 447.836 146.602 452.014 131.335 448.442C99.8965 446.011 88.709 412.135 95.4324 379.851C99.4381 361.149 109.345 343.018 124.715 331.628C143.935 317.38 174.017 306.752 183.552 280.524C190.682 263.04 146.064 240.086 157.634 207.807C164.908 186.682 189.256 176.873 190.623 160.382C192.091 142.659 192.958 128.326 192.779 120.255Z" stroke="black" stroke-opacity="0.17" stroke-width="1.19883"/>
<path d="M205.42 137.627C200.239 96.1262 241.157 106.855 249.644 128.913C263.145 163.696 278.067 174.368 303.044 185.401C315.16 193.014 318.798 164.604 338.868 160.961C358.937 157.318 367.169 185.292 378.582 173.022C396.261 154.419 412.478 148.139 425.27 149.87C437.699 150.825 447.188 159.68 451.591 172.229C455.683 184.026 455.267 199.047 448.517 213.784C434.872 233.115 431.822 257.961 422.291 270.374C409.553 282.389 426.316 294.914 422.758 320.341C419.2 345.767 398.576 344.486 404.751 362.872C414.997 392.174 417.329 412.45 414.501 425.534C409.841 455.109 380.735 451.037 356.821 429.396C342.457 416.904 331.52 405.293 321.646 397.045C309.812 384.023 294.375 410.358 279.397 410.666C253.92 410.616 258.082 381.705 236.716 394.667C227.72 399.972 217.881 406.158 206.993 413.415C181.131 429.566 162.023 432.013 149.166 427.876C122.306 425.489 112.837 396.188 118.752 368.28C122.341 352 131.03 336.237 144.442 326.301C162.302 313.064 188.766 303.404 197.047 278.978C203.183 263.5 164.861 243.264 174.656 215.046C180.773 196.375 201.514 187.391 202.727 172.765C204.022 157.146 205.153 144.599 205.42 137.627Z" stroke="black" stroke-opacity="0.17" stroke-width="1.19883"/>
<path d="M217.513 154.219C213.681 119.522 248.343 128.651 255.609 147.537C268.397 180.405 282.529 188.764 305.254 196.917C315.618 203.126 319.015 179.123 336.129 175.819C353.242 172.515 360.486 195.626 370.291 185.396C385.605 169.889 399.568 165.011 410.461 166.989C420.934 168.036 428.913 175.823 432.456 186.69C435.738 196.93 435.066 209.858 428.763 222.395C414.485 239.568 414.707 266.292 406.883 278.255C396.301 288.847 409.918 299.613 406.441 320.876C402.964 342.14 385.109 340.856 389.745 355.7C397.705 379.582 399.24 395.95 396.521 406.414C392.363 430.812 367.574 427.068 346.987 408.87C334.366 398.304 324.473 388.674 315.439 382.326C305.201 371.688 291.911 393.939 278.949 394.536C257.172 394.875 260.175 371.016 241.933 381.991C234.011 386.578 225.437 391.801 216.038 397.839C193.204 411.248 176.806 411.969 166.331 407.259C143.995 404.908 136.224 380.109 141.344 356.508C144.523 342.607 152.012 329.173 163.495 320.666C180.033 308.407 202.933 299.691 209.977 277.006C215.131 263.496 183.026 245.927 191.067 221.698C196.039 205.435 213.216 197.253 214.278 184.456C215.402 170.901 216.8 160.109 217.513 154.219Z" stroke="black" stroke-opacity="0.17" stroke-width="1.19883"/>
<path d="M230.14 170.809C227.667 142.922 255.981 150.45 262.007 166.162C274.048 197.123 287.353 203.167 307.764 208.434C316.348 213.237 319.496 193.643 333.607 190.679C347.719 187.714 353.956 205.958 362.127 197.769C375.036 185.36 386.708 181.887 395.674 184.114C404.162 185.252 410.611 191.971 413.283 201.156C415.748 209.839 414.821 220.673 408.981 231.009C394.11 246.025 397.603 274.641 391.506 286.155C383.108 295.325 393.543 304.331 390.157 321.428C386.771 338.525 371.732 337.238 374.817 348.536C380.47 366.993 381.203 379.449 378.602 387.289C374.956 406.506 354.551 403.09 337.344 388.336C326.5 379.698 317.678 372.052 309.509 367.606C300.893 359.355 289.785 377.519 278.873 378.406C260.854 379.135 262.691 360.332 247.621 369.319C240.794 373.188 233.508 377.448 225.624 382.265C205.877 392.929 192.232 391.921 184.168 386.634C166.414 384.319 160.362 364.025 164.673 344.733C167.433 333.213 173.702 322.109 183.226 315.032C198.397 303.749 217.673 295.976 223.462 275.029C227.62 263.487 201.816 248.585 208.082 228.348C211.897 214.493 225.464 207.113 226.372 196.143C227.322 184.654 228.984 175.617 230.14 170.809Z" stroke="black" stroke-opacity="0.17" stroke-width="1.19883"/>
<path d="M242.411 187.398C241.285 166.33 263.405 172.255 268.224 184.79C279.587 213.854 292.142 217.577 310.357 219.951C317.207 223.347 320.124 208.168 331.31 205.542C342.496 202.916 347.762 216.284 354.344 210.14C364.918 200.834 374.363 198.768 381.45 201.245C388 202.476 392.952 208.128 394.768 215.63C396.427 222.754 395.24 231.493 389.83 239.626C374.274 252.484 381.067 283.015 376.666 294.086C370.407 301.833 377.714 309.078 374.398 322.003C371.083 334.929 358.779 333.638 360.326 341.384C363.701 354.407 363.634 362.942 361.135 368.155C357.981 382.182 341.849 379.094 327.928 367.789C318.801 361.079 311 355.42 303.648 352.881C296.608 347.021 287.621 361.094 278.699 362.272C264.34 363.392 265.019 349.653 253.039 356.65L252.705 356.833C247.036 359.928 241.107 363.165 234.818 366.691C218.049 374.606 207.083 371.862 201.387 365.993C188.12 363.713 183.756 347.929 187.282 332.951C189.639 323.813 194.723 315.042 202.338 309.396C216.23 299.086 231.987 292.257 236.552 273.041C239.738 263.468 220.098 251.234 224.621 234.992C227.298 223.546 237.327 216.966 238.086 207.825C238.867 198.403 240.803 191.122 242.411 187.398Z" stroke="black" stroke-opacity="0.17" stroke-width="1.19883"/>
<path d="M255.006 204.792C255.238 190.635 270.99 194.932 274.564 204.234C285.165 231.269 296.876 232.656 312.755 232.128C317.819 234.101 320.483 223.404 328.657 221.128C336.831 218.853 341.084 227.288 346.025 223.215C354.184 217.052 361.328 216.403 366.482 219.119C371.042 220.437 374.459 224.995 375.404 230.781C376.244 236.315 374.806 242.92 369.865 248.814C353.739 259.458 363.787 291.763 361.116 302.341C357.046 308.63 361.166 314.082 357.946 322.778C354.726 331.475 345.251 330.187 345.247 334.347C346.315 341.879 345.448 346.457 343.07 349.019C340.432 357.796 328.698 355.049 318.172 347.242C310.832 342.492 304.11 338.844 297.632 338.222C292.221 334.779 285.425 344.698 278.562 346.162C267.975 347.668 267.489 339.054 258.693 344.029C254.024 346.447 249.28 348.763 244.388 351.121C230.725 356.253 222.522 351.786 219.24 345.362C210.566 343.128 207.925 331.923 210.637 321.325C212.573 314.61 216.432 308.211 222.081 304.021C234.588 294.73 246.706 288.874 250.011 271.477C252.199 263.915 238.876 254.404 241.621 242.229C243.139 233.243 249.55 227.493 250.154 220.221C250.762 212.908 252.957 207.415 255.006 204.792Z" stroke="black" stroke-opacity="0.17" stroke-width="1.19883"/>
<path d="M267.787 221.404C269.37 214.108 278.806 216.79 281.145 222.889C291.001 247.957 301.887 247.017 315.461 243.595C318.754 244.153 321.169 237.902 326.356 235.971C331.542 234.041 334.792 237.574 338.108 235.558C343.872 232.517 348.736 233.278 351.971 236.238C354.557 237.645 356.451 241.123 356.53 245.209C356.557 249.17 354.865 253.66 350.387 257.335C333.673 265.792 346.973 299.932 346.02 310.039C344.124 314.888 345.078 318.563 341.948 323.062C338.819 327.561 332.147 326.271 330.601 326.866C329.374 328.938 327.71 329.581 325.449 329.506C323.321 333.066 315.95 330.653 308.789 326.319C303.217 323.511 297.561 321.861 291.944 323.149C288.149 322.109 283.525 327.907 278.702 329.659C271.856 331.553 270.209 328.03 264.571 331.001C260.992 332.693 257.53 334.037 254.145 335.166C243.556 337.534 238.094 331.34 237.21 324.35C233.096 322.156 232.164 315.494 234.071 309.241C235.591 304.93 238.236 300.881 241.934 298.134C253.079 289.841 261.59 284.943 263.646 269.325C264.843 263.752 257.791 256.937 258.769 248.791C259.135 242.239 261.955 237.306 262.406 231.883C262.84 226.657 265.297 222.936 267.787 221.404Z" stroke="black" stroke-opacity="0.17" stroke-width="1.19883"/>
</svg>
