<svg width="32" height="32" viewBox="0 0 32 32" fill="none" xmlns="http://www.w3.org/2000/svg">
<g clip-path="url(#clip0_2_14156)">
<path d="M16 2.88368C20.2747 2.88368 20.7765 2.90274 22.4661 2.97896C24.0286 3.04883 24.8734 3.30925 25.4387 3.53156C26.1882 3.82374 26.7217 4.16673 27.2807 4.72568C27.8396 5.28464 28.189 5.81818 28.4748 6.56769C28.6908 7.13299 28.9575 7.97777 29.0274 9.54029C29.1036 11.2299 29.1227 11.7316 29.1227 16.0064C29.1227 20.2811 29.1036 20.7828 29.0274 22.4724C28.9575 24.0349 28.6971 24.8797 28.4748 25.445C28.1826 26.1945 27.8396 26.7281 27.2807 27.287C26.7217 27.846 26.1882 28.1953 25.4387 28.4811C24.8734 28.6971 24.0286 28.9639 22.4661 29.0337C20.7765 29.11 20.2747 29.129 16 29.129C11.7253 29.129 11.2235 29.11 9.53395 29.0337C7.97142 28.9639 7.12664 28.7035 6.56134 28.4811C5.81183 28.189 5.27829 27.846 4.71934 27.287C4.16038 26.7281 3.81104 26.1945 3.52521 25.445C3.30925 24.8797 3.04248 24.0349 2.97261 22.4724C2.89639 20.7828 2.87733 20.2811 2.87733 16.0064C2.87733 11.7316 2.89639 11.2299 2.97261 9.54029C3.04248 7.97777 3.3029 7.13299 3.52521 6.56769C3.81739 5.81818 4.16038 5.28464 4.71934 4.72568C5.27829 4.16673 5.81183 3.81739 6.56134 3.53156C7.12664 3.3156 7.97142 3.04883 9.53395 2.97896C11.2235 2.89639 11.7316 2.88368 16 2.88368ZM16 0C11.6554 0 11.1092 0.0190552 9.40056 0.0952759C7.6983 0.171497 6.53593 0.444621 5.51965 0.838428C4.46527 1.24494 3.57602 1.79754 2.68678 2.68678C1.79754 3.57602 1.25129 4.47162 0.838428 5.51965C0.444621 6.53593 0.171497 7.69829 0.095276 9.40691C0.0190552 11.1092 0 11.6554 0 16C0 20.3446 0.0190552 20.8908 0.095276 22.5994C0.171497 24.3017 0.444621 25.4641 0.838428 26.4867C1.24494 27.5411 1.79754 28.4303 2.68678 29.3196C3.57602 30.2088 4.47162 30.7551 5.51965 31.1679C6.53593 31.5617 7.6983 31.8349 9.40691 31.9111C11.1155 31.9873 11.6554 32.0064 16.0064 32.0064C20.3573 32.0064 20.8972 31.9873 22.6058 31.9111C24.3081 31.8349 25.4704 31.5617 26.4931 31.1679C27.5475 30.7614 28.4367 30.2088 29.3259 29.3196C30.2152 28.4303 30.7614 27.5347 31.1743 26.4867C31.5681 25.4704 31.8412 24.3081 31.9174 22.5994C31.9937 20.8908 32.0127 20.3509 32.0127 16C32.0127 11.6491 31.9937 11.1092 31.9174 9.40056C31.8412 7.69829 31.5681 6.53593 31.1743 5.5133C30.7678 4.45891 30.2152 3.56967 29.3259 2.68043C28.4367 1.79119 27.5411 1.24494 26.4931 0.832076C25.4768 0.438269 24.3144 0.165145 22.6058 0.0889242C20.8908 0.0190552 20.3446 0 16 0Z" fill="#3A3A3A"/>
<path d="M16 2.88368C20.2747 2.88368 20.7765 2.90274 22.4661 2.97896C24.0286 3.04883 24.8734 3.30925 25.4387 3.53156C26.1882 3.82374 26.7217 4.16673 27.2807 4.72568C27.8396 5.28464 28.189 5.81818 28.4748 6.56769C28.6908 7.13299 28.9575 7.97777 29.0274 9.54029C29.1036 11.2299 29.1227 11.7316 29.1227 16.0064C29.1227 20.2811 29.1036 20.7828 29.0274 22.4724C28.9575 24.0349 28.6971 24.8797 28.4748 25.445C28.1826 26.1945 27.8396 26.7281 27.2807 27.287C26.7217 27.846 26.1882 28.1953 25.4387 28.4811C24.8734 28.6971 24.0286 28.9639 22.4661 29.0337C20.7765 29.11 20.2747 29.129 16 29.129C11.7253 29.129 11.2235 29.11 9.53395 29.0337C7.97142 28.9639 7.12664 28.7035 6.56134 28.4811C5.81183 28.189 5.27829 27.846 4.71934 27.287C4.16038 26.7281 3.81104 26.1945 3.52521 25.445C3.30925 24.8797 3.04248 24.0349 2.97261 22.4724C2.89639 20.7828 2.87733 20.2811 2.87733 16.0064C2.87733 11.7316 2.89639 11.2299 2.97261 9.54029C3.04248 7.97777 3.3029 7.13299 3.52521 6.56769C3.81739 5.81818 4.16038 5.28464 4.71934 4.72568C5.27829 4.16673 5.81183 3.81739 6.56134 3.53156C7.12664 3.3156 7.97142 3.04883 9.53395 2.97896C11.2235 2.89639 11.7316 2.88368 16 2.88368Z" fill="#3A3A3A"/>
<path d="M15.9999 7.78711C11.4648 7.78711 7.78076 11.4648 7.78076 16.0062C7.78076 20.5477 11.4584 24.2254 15.9999 24.2254C20.5414 24.2254 24.219 20.5477 24.219 16.0062C24.219 11.4648 20.5414 7.78711 15.9999 7.78711ZM15.9999 21.3353C13.0527 21.3353 10.6644 18.9471 10.6644 15.9999C10.6644 13.0527 13.0527 10.6644 15.9999 10.6644C18.9471 10.6644 21.3353 13.0527 21.3353 15.9999C21.3353 18.9471 18.9471 21.3353 15.9999 21.3353Z" fill="white"/>
<path d="M24.5432 9.37551C25.6026 9.37551 26.4614 8.51669 26.4614 7.45728C26.4614 6.39788 25.6026 5.53906 24.5432 5.53906C23.4838 5.53906 22.625 6.39788 22.625 7.45728C22.625 8.51669 23.4838 9.37551 24.5432 9.37551Z" fill="white"/>
</g>
<defs>
<clipPath id="clip0_2_14156">
<rect width="32" height="32" fill="white"/>
</clipPath>
</defs>
</svg>
