<svg width="21" height="20" viewBox="0 0 21 20" fill="none" xmlns="http://www.w3.org/2000/svg">
<g id="Frame">
<path id="Vector" fill-rule="evenodd" clip-rule="evenodd" d="M15.209 5.2917C13.8507 3.93337 11.9257 3.15003 9.80904 3.3667C6.75071 3.67503 4.23404 6.15837 3.89238 9.2167C3.43404 13.2584 6.55904 16.6667 10.5007 16.6667C13.159 16.6667 15.4424 15.1084 16.509 12.8667C16.7757 12.3084 16.3757 11.6667 15.759 11.6667C15.4507 11.6667 15.159 11.8334 15.0257 12.1084C14.084 14.1334 11.8257 15.4167 9.35904 14.8667C7.50904 14.4584 6.01738 12.95 5.62571 11.1C4.92571 7.8667 7.38404 5.00003 10.5007 5.00003C11.884 5.00003 13.1174 5.57503 14.0174 6.48337L12.759 7.7417C12.234 8.2667 12.6007 9.1667 13.3424 9.1667H16.334C16.7924 9.1667 17.1674 8.7917 17.1674 8.33337V5.3417C17.1674 4.60003 16.2674 4.22503 15.7424 4.75003L15.209 5.2917Z" fill="#969696"/>
</g>
</svg>
