<svg width="16" height="16" viewBox="0 0 16 16" fill="none" xmlns="http://www.w3.org/2000/svg">
<mask id="mask0_243_375" style="mask-type:alpha" maskUnits="userSpaceOnUse" x="0" y="0" width="16" height="16">
<rect width="16" height="16" fill="#D9D9D9"/>
</mask>
<g mask="url(#mask0_243_375)">
<path d="M10 14C9.63333 14 9.31945 13.8694 9.05833 13.6083C8.79722 13.3472 8.66667 13.0333 8.66667 12.6667V3.33333C8.66667 2.96667 8.79722 2.65278 9.05833 2.39167C9.31945 2.13056 9.63333 2 10 2H12.6667C13.0333 2 13.3472 2.13056 13.6083 2.39167C13.8694 2.65278 14 2.96667 14 3.33333V12.6667C14 13.0333 13.8694 13.3472 13.6083 13.6083C13.3472 13.8694 13.0333 14 12.6667 14H10ZM10 3.33333V12.6667H12.6667V3.33333H10ZM3.33333 14C2.96667 14 2.65278 13.8694 2.39167 13.6083C2.13056 13.3472 2 13.0333 2 12.6667V3.33333C2 2.96667 2.13056 2.65278 2.39167 2.39167C2.65278 2.13056 2.96667 2 3.33333 2H6C6.36667 2 6.68056 2.13056 6.94167 2.39167C7.20278 2.65278 7.33333 2.96667 7.33333 3.33333V12.6667C7.33333 13.0333 7.20278 13.3472 6.94167 13.6083C6.68056 13.8694 6.36667 14 6 14H3.33333ZM3.33333 3.33333V12.6667H6V3.33333H3.33333Z" fill="#3A3A3A"/>
</g>
</svg>
