<svg width="16" height="16" viewBox="0 0 16 16" fill="none" xmlns="http://www.w3.org/2000/svg">
<g id="Frame">
<path id="Vector" fill-rule="evenodd" clip-rule="evenodd" d="M11.9987 8.66665H8.66536V12C8.66536 12.3666 8.36536 12.6666 7.9987 12.6666C7.63203 12.6666 7.33203 12.3666 7.33203 12V8.66665H3.9987C3.63203 8.66665 3.33203 8.36665 3.33203 7.99998C3.33203 7.63331 3.63203 7.33331 3.9987 7.33331H7.33203V3.99998C7.33203 3.63331 7.63203 3.33331 7.9987 3.33331C8.36536 3.33331 8.66536 3.63331 8.66536 3.99998V7.33331H11.9987C12.3654 7.33331 12.6654 7.63331 12.6654 7.99998C12.6654 8.36665 12.3654 8.66665 11.9987 8.66665Z" fill="white"/>
</g>
</svg>
