<svg width="16" height="16" viewBox="0 0 16 16" fill="none" xmlns="http://www.w3.org/2000/svg">
<g id="Frame">
<path id="Exclude" fill-rule="evenodd" clip-rule="evenodd" d="M10.8273 5.17333C10.0473 4.39333 9.02732 3.99999 8.00065 3.99999V7.99999L5.17398 10.8267C6.73398 12.3867 9.26732 12.3867 10.834 10.8267C12.394 9.26666 12.394 6.73333 10.8273 5.17333ZM8.00065 1.33333C4.32065 1.33333 1.33398 4.31999 1.33398 8C1.33398 11.68 4.32065 14.6667 8.00065 14.6667C11.6807 14.6667 14.6673 11.68 14.6673 8C14.6673 4.31999 11.6807 1.33333 8.00065 1.33333ZM8.00065 13.3333C5.05398 13.3333 2.66732 10.9467 2.66732 7.99999C2.66732 5.05333 5.05398 2.66666 8.00065 2.66666C10.9473 2.66666 13.334 5.05333 13.334 7.99999C13.334 10.9467 10.9473 13.3333 8.00065 13.3333Z" fill="#969696"/>
</g>
</svg>
