<svg width="32" height="26" viewBox="0 0 32 26" fill="none" xmlns="http://www.w3.org/2000/svg">
<path fill-rule="evenodd" clip-rule="evenodd" d="M2.71619 11.0578C10.9848 7.45525 16.4986 5.08025 19.2574 3.93277C27.1343 0.656479 28.7711 0.0873527 29.8379 0.0685597C30.0725 0.0644265 30.5972 0.122576 30.937 0.398327C31.224 0.631166 31.3029 0.945698 31.3407 1.16646C31.3785 1.38721 31.4255 1.8901 31.3881 2.28305C30.9613 6.76804 29.1143 17.6519 28.1746 22.6752C27.777 24.8007 26.9941 25.5134 26.2362 25.5832C24.5891 25.7347 23.3383 24.4946 21.743 23.4489C19.2466 21.8124 17.8363 20.7938 15.4131 19.1969C12.6127 17.3515 14.4281 16.3372 16.024 14.6796C16.4417 14.2458 23.699 7.64471 23.8395 7.04588C23.8571 6.97099 23.8734 6.69182 23.7075 6.54441C23.5417 6.397 23.2969 6.44741 23.1203 6.4875C22.8699 6.54433 18.8819 9.18026 11.1562 14.3953C10.0242 15.1726 8.99891 15.5513 8.08026 15.5315C7.06752 15.5096 5.11942 14.9589 3.67121 14.4881C1.89492 13.9107 0.483163 13.6054 0.606095 12.6248C0.670126 12.1141 1.37349 11.5917 2.71619 11.0578Z" fill="#3A3A3A"/>
</svg>
