<svg width="21" height="21" viewBox="0 0 21 21" fill="none" xmlns="http://www.w3.org/2000/svg">
<g id="Frame">
<path id="Vector" fill-rule="evenodd" clip-rule="evenodd" d="M4.65919 8.71994L3.42919 9.94994C3.26592 10.1125 3.13637 10.3058 3.04797 10.5186C2.95957 10.7314 2.91406 10.9595 2.91406 11.1899C2.91406 11.4204 2.95957 11.6485 3.04797 11.8613C3.13637 12.0741 3.26592 12.2673 3.42919 12.4299L8.56919 17.5599C9.26919 18.2599 10.3692 18.2499 11.0492 17.5599L12.2792 16.3399L17.6292 10.9899C17.9636 10.6165 18.1456 10.1312 18.1392 9.62994L17.8192 5.33994C17.7584 4.79159 17.5121 4.28046 17.1211 3.89126C16.7301 3.50205 16.2178 3.25814 15.6692 3.19994L11.3692 2.86994C10.9392 2.83994 10.3192 3.06994 10.0092 3.37994L9.21919 4.17994L6.94919 6.45994L4.66919 8.72994L4.65919 8.71994ZM14.4892 7.73994C14.8207 7.73994 15.1387 7.60825 15.3731 7.37382C15.6075 7.1394 15.7392 6.82146 15.7392 6.48994C15.7392 6.15842 15.6075 5.84048 15.3731 5.60606C15.1387 5.37164 14.8207 5.23994 14.4892 5.23994C14.1577 5.23994 13.8397 5.37164 13.6053 5.60606C13.3709 5.84048 13.2392 6.15842 13.2392 6.48994C13.2392 6.82146 13.3709 7.1394 13.6053 7.37382C13.8397 7.60825 14.1577 7.73994 14.4892 7.73994Z" fill="black"/>
</g>
</svg>
