<svg width="16" height="16" viewBox="0 0 16 16" fill="none" xmlns="http://www.w3.org/2000/svg">
<g id="Frame">
<path id="Exclude" fill-rule="evenodd" clip-rule="evenodd" d="M7.99935 3.33333C4.66602 3.33333 1.81935 5.40666 0.666016 8.33333C1.81935 11.26 4.66602 13.3333 7.99935 13.3333C11.3327 13.3333 14.1793 11.26 15.3327 8.33333C14.1793 5.40666 11.3327 3.33333 7.99935 3.33333ZM7.99935 11.6667C6.15935 11.6667 4.66602 10.1733 4.66602 8.33333C4.66602 6.49333 6.15935 4.99999 7.99935 4.99999C9.83935 4.99999 11.3327 6.49333 11.3327 8.33333C11.3327 10.1733 9.83935 11.6667 7.99935 11.6667ZM7.99935 6.33333C6.89268 6.33333 5.99935 7.22666 5.99935 8.33333C5.99935 9.43999 6.89268 10.3333 7.99935 10.3333C9.10602 10.3333 9.99935 9.43999 9.99935 8.33333C9.99935 7.22666 9.10602 6.33333 7.99935 6.33333Z" fill="#969696"/>
</g>
</svg>
